<?xml version="1.0" encoding="UTF-8" standalone="no"?><svg xmlns="http://www.w3.org/2000/svg" xmlns:xlink="http://www.w3.org/1999/xlink" contentScriptType="application/ecmascript" contentStyleType="text/css" height="1052px" preserveAspectRatio="none" style="width:1818px;height:1052px;" version="1.1" viewBox="0 0 1818 1052" width="1818px" zoomAndPan="magnify"><defs><filter height="300%" id="f1ds1j13a6ouu4" width="300%" x="-1" y="-1"><feGaussianBlur result="blurOut" stdDeviation="2.0"/><feColorMatrix in="blurOut" result="blurOut2" type="matrix" values="0 0 0 0 0 0 0 0 0 0 0 0 0 0 0 0 0 0 .4 0"/><feOffset dx="4.0" dy="4.0" in="blurOut2" result="blurOut3"/><feBlend in="SourceGraphic" in2="blurOut3" mode="normal"/></filter></defs><g><!--MD5=[fb5f97c492c2fe56f91ed40335b2181f]
cluster C_0001387619747296316447--><polygon fill="#FFFFFF" filter="url(#f1ds1j13a6ouu4)" points="22,24,48,24,55,49.0679,1796,49.0679,1796,1040,22,1040,22,24" style="stroke: #000000; stroke-width: 1.5;"/><line style="stroke: #000000; stroke-width: 1.5;" x1="22" x2="55" y1="49.0679" y2="49.0679"/><text fill="#000000" font-family="sans-serif" font-size="14" font-weight="bold" lengthAdjust="spacingAndGlyphs" textLength="20" x="26" y="40.9659">src</text><!--MD5=[0921fd70008aa4ff3e3524516e4b6abe]
cluster C_0002278286474666070424--><polygon fill="#FFFFFF" filter="url(#f1ds1j13a6ouu4)" points="46,70,82,70,89,95.0679,1772,95.0679,1772,1016,46,1016,46,70" style="stroke: #000000; stroke-width: 1.5;"/><line style="stroke: #000000; stroke-width: 1.5;" x1="46" x2="89" y1="95.0679" y2="95.0679"/><text fill="#000000" font-family="sans-serif" font-size="14" font-weight="bold" lengthAdjust="spacingAndGlyphs" textLength="30" x="50" y="86.9659">core</text><!--MD5=[753ed5a5e3b49a09ecce3644c489331c]
cluster C_0001183054535709160710--><polygon fill="#FFFFFF" filter="url(#f1ds1j13a6ouu4)" points="159,116,211,116,218,141.0679,980,141.0679,980,726,159,726,159,116" style="stroke: #000000; stroke-width: 1.5;"/><line style="stroke: #000000; stroke-width: 1.5;" x1="159" x2="218" y1="141.0679" y2="141.0679"/><text fill="#000000" font-family="sans-serif" font-size="14" font-weight="bold" lengthAdjust="spacingAndGlyphs" textLength="46" x="163" y="132.9659">thread</text><!--MD5=[2c9a36fa5d603618b500a3c3b0fb0b44]
cluster C_0000538251318670428019--><polygon fill="#FFFFFF" filter="url(#f1ds1j13a6ouu4)" points="1303,602,1371,602,1378,627.0679,1574,627.0679,1574,992,1303,992,1303,602" style="stroke: #000000; stroke-width: 1.5;"/><line style="stroke: #000000; stroke-width: 1.5;" x1="1303" x2="1378" y1="627.0679" y2="627.0679"/><text fill="#000000" font-family="sans-serif" font-size="14" font-weight="bold" lengthAdjust="spacingAndGlyphs" textLength="62" x="1307" y="618.9659">common</text><!--MD5=[702be35102f90b025308519d9ae5fbd5]
cluster C_0000215011246174653850--><polygon fill="#FFFFFF" filter="url(#f1ds1j13a6ouu4)" points="1021,429,1050,429,1057,454.0679,1266,454.0679,1266,726,1021,726,1021,429" style="stroke: #000000; stroke-width: 1.5;"/><line style="stroke: #000000; stroke-width: 1.5;" x1="1021" x2="1057" y1="454.0679" y2="454.0679"/><text fill="#000000" font-family="sans-serif" font-size="14" font-weight="bold" lengthAdjust="spacingAndGlyphs" textLength="23" x="1025" y="445.9659">net</text><!--MD5=[6291333f0e784483cfe179640c99dc94]
cluster C_0001889813544493651964--><polygon fill="#FFFFFF" filter="url(#f1ds1j13a6ouu4)" points="1598,868,1637,868,1644,893.0679,1748,893.0679,1748,992,1598,992,1598,868" style="stroke: #000000; stroke-width: 1.5;"/><line style="stroke: #000000; stroke-width: 1.5;" x1="1598" x2="1644" y1="893.0679" y2="893.0679"/><text fill="#000000" font-family="sans-serif" font-size="14" font-weight="bold" lengthAdjust="spacingAndGlyphs" textLength="33" x="1602" y="884.9659">coap</text><!--MD5=[5067121e26e51bd9c4527c319272e723]
class C_0000683747308386236353--><rect fill="#FEFECE" filter="url(#f1ds1j13a6ouu4)" height="48" id="C_0000683747308386236353" style="stroke: #A80036; stroke-width: 1.5;" width="220" x="744" y="176"/><ellipse cx="759" cy="192" fill="#ADD1B2" rx="11" ry="11" style="stroke: #A80036; stroke-width: 1.0;"/><path d="M761.9688,197.6406 Q761.3906,197.9375 760.75,198.0781 Q760.1094,198.2344 759.4063,198.2344 Q756.9063,198.2344 755.5781,196.5938 Q754.2656,194.9375 754.2656,191.8125 Q754.2656,188.6875 755.5781,187.0313 Q756.9063,185.375 759.4063,185.375 Q760.1094,185.375 760.75,185.5313 Q761.4063,185.6875 761.9688,185.9844 L761.9688,188.7031 Q761.3438,188.125 760.75,187.8594 Q760.1563,187.5781 759.5313,187.5781 Q758.1875,187.5781 757.5,188.6563 Q756.8125,189.7188 756.8125,191.8125 Q756.8125,193.9063 757.5,194.9844 Q758.1875,196.0469 759.5313,196.0469 Q760.1563,196.0469 760.75,195.7813 Q761.3438,195.5 761.9688,194.9219 L761.9688,197.6406 Z "/><text fill="#000000" font-family="sans-serif" font-size="12" lengthAdjust="spacingAndGlyphs" textLength="188" x="773" y="196.656">NetworkData::LowpanContextInfo</text><line style="stroke: #A80036; stroke-width: 1.5;" x1="745" x2="963" y1="208" y2="208"/><line style="stroke: #A80036; stroke-width: 1.5;" x1="745" x2="963" y1="216" y2="216"/><!--MD5=[9461b6700e06965e874049bb61ba365a]
class C_0001346570432467457356--><rect fill="#FEFECE" filter="url(#f1ds1j13a6ouu4)" height="48" id="C_0001346570432467457356" style="stroke: #A80036; stroke-width: 1.5;" width="124" x="396" y="312"/><ellipse cx="411" cy="328" fill="#ADD1B2" rx="11" ry="11" style="stroke: #A80036; stroke-width: 1.0;"/><path d="M413.9688,333.6406 Q413.3906,333.9375 412.75,334.0781 Q412.1094,334.2344 411.4063,334.2344 Q408.9063,334.2344 407.5781,332.5938 Q406.2656,330.9375 406.2656,327.8125 Q406.2656,324.6875 407.5781,323.0313 Q408.9063,321.375 411.4063,321.375 Q412.1094,321.375 412.75,321.5313 Q413.4063,321.6875 413.9688,321.9844 L413.9688,324.7031 Q413.3438,324.125 412.75,323.8594 Q412.1563,323.5781 411.5313,323.5781 Q410.1875,323.5781 409.5,324.6563 Q408.8125,325.7188 408.8125,327.8125 Q408.8125,329.9063 409.5,330.9844 Q410.1875,332.0469 411.5313,332.0469 Q412.1563,332.0469 412.75,331.7813 Q413.3438,331.5 413.9688,330.9219 L413.9688,333.6406 Z "/><text fill="#000000" font-family="sans-serif" font-size="12" lengthAdjust="spacingAndGlyphs" textLength="92" x="425" y="332.656">Lowpan::Context</text><line style="stroke: #A80036; stroke-width: 1.5;" x1="397" x2="519" y1="344" y2="344"/><line style="stroke: #A80036; stroke-width: 1.5;" x1="397" x2="519" y1="352" y2="352"/><!--MD5=[a03cb49e7d6b33756ccc94dc5e5c9386]
class C_0001332924320389650839--><rect fill="#FEFECE" filter="url(#f1ds1j13a6ouu4)" height="48" id="C_0001332924320389650839" style="stroke: #A80036; stroke-width: 1.5;" width="124" x="396" y="176"/><ellipse cx="411" cy="192" fill="#ADD1B2" rx="11" ry="11" style="stroke: #A80036; stroke-width: 1.0;"/><path d="M413.9688,197.6406 Q413.3906,197.9375 412.75,198.0781 Q412.1094,198.2344 411.4063,198.2344 Q408.9063,198.2344 407.5781,196.5938 Q406.2656,194.9375 406.2656,191.8125 Q406.2656,188.6875 407.5781,187.0313 Q408.9063,185.375 411.4063,185.375 Q412.1094,185.375 412.75,185.5313 Q413.4063,185.6875 413.9688,185.9844 L413.9688,188.7031 Q413.3438,188.125 412.75,187.8594 Q412.1563,187.5781 411.5313,187.5781 Q410.1875,187.5781 409.5,188.6563 Q408.8125,189.7188 408.8125,191.8125 Q408.8125,193.9063 409.5,194.9844 Q410.1875,196.0469 411.5313,196.0469 Q412.1563,196.0469 412.75,195.7813 Q413.3438,195.5 413.9688,194.9219 L413.9688,197.6406 Z "/><text fill="#000000" font-family="sans-serif" font-size="12" lengthAdjust="spacingAndGlyphs" textLength="92" x="425" y="196.656">Lowpan::Lowpan</text><line style="stroke: #A80036; stroke-width: 1.5;" x1="397" x2="519" y1="208" y2="208"/><line style="stroke: #A80036; stroke-width: 1.5;" x1="397" x2="519" y1="216" y2="216"/><!--MD5=[b496fc4a33570989f5aeff91d1003c77]
class C_0001265256160105741077--><rect fill="#FEFECE" filter="url(#f1ds1j13a6ouu4)" height="48" id="C_0001265256160105741077" style="stroke: #A80036; stroke-width: 1.5;" width="154" x="555" y="176"/><ellipse cx="570" cy="192" fill="#ADD1B2" rx="11" ry="11" style="stroke: #A80036; stroke-width: 1.0;"/><path d="M572.9688,197.6406 Q572.3906,197.9375 571.75,198.0781 Q571.1094,198.2344 570.4063,198.2344 Q567.9063,198.2344 566.5781,196.5938 Q565.2656,194.9375 565.2656,191.8125 Q565.2656,188.6875 566.5781,187.0313 Q567.9063,185.375 570.4063,185.375 Q571.1094,185.375 571.75,185.5313 Q572.4063,185.6875 572.9688,185.9844 L572.9688,188.7031 Q572.3438,188.125 571.75,187.8594 Q571.1563,187.5781 570.5313,187.5781 Q569.1875,187.5781 568.5,188.6563 Q567.8125,189.7188 567.8125,191.8125 Q567.8125,193.9063 568.5,194.9844 Q569.1875,196.0469 570.5313,196.0469 Q571.1563,196.0469 571.75,195.7813 Q572.3438,195.5 572.9688,194.9219 L572.9688,197.6406 Z "/><text fill="#000000" font-family="sans-serif" font-size="12" lengthAdjust="spacingAndGlyphs" textLength="122" x="584" y="196.656">Lowpan::MeshHeader</text><line style="stroke: #A80036; stroke-width: 1.5;" x1="556" x2="708" y1="208" y2="208"/><line style="stroke: #A80036; stroke-width: 1.5;" x1="556" x2="708" y1="216" y2="216"/><!--MD5=[7733fbfb3e507b22ea02d3098f540e34]
class C_0000603590511880671658--><rect fill="#FEFECE" filter="url(#f1ds1j13a6ouu4)" height="48" id="C_0000603590511880671658" style="stroke: #A80036; stroke-width: 1.5;" width="121" x="832.5" y="489"/><ellipse cx="847.5" cy="505" fill="#ADD1B2" rx="11" ry="11" style="stroke: #A80036; stroke-width: 1.0;"/><path d="M850.4688,510.6406 Q849.8906,510.9375 849.25,511.0781 Q848.6094,511.2344 847.9063,511.2344 Q845.4063,511.2344 844.0781,509.5938 Q842.7656,507.9375 842.7656,504.8125 Q842.7656,501.6875 844.0781,500.0313 Q845.4063,498.375 847.9063,498.375 Q848.6094,498.375 849.25,498.5313 Q849.9063,498.6875 850.4688,498.9844 L850.4688,501.7031 Q849.8438,501.125 849.25,500.8594 Q848.6563,500.5781 848.0313,500.5781 Q846.6875,500.5781 846,501.6563 Q845.3125,502.7188 845.3125,504.8125 Q845.3125,506.9063 846,507.9844 Q846.6875,509.0469 848.0313,509.0469 Q848.6563,509.0469 849.25,508.7813 Q849.8438,508.5 850.4688,507.9219 L850.4688,510.6406 Z "/><text fill="#000000" font-family="sans-serif" font-size="12" lengthAdjust="spacingAndGlyphs" textLength="89" x="861.5" y="509.656">MeshForwarder</text><line style="stroke: #A80036; stroke-width: 1.5;" x1="833.5" x2="952.5" y1="521" y2="521"/><line style="stroke: #A80036; stroke-width: 1.5;" x1="833.5" x2="952.5" y1="529" y2="529"/><!--MD5=[95df13b2cf148589c0162fafb28ae08c]
class C_0000576691251651384823--><rect fill="#FEFECE" filter="url(#f1ds1j13a6ouu4)" height="48" id="C_0000576691251651384823" style="stroke: #A80036; stroke-width: 1.5;" width="186" x="175" y="176"/><ellipse cx="190" cy="192" fill="#ADD1B2" rx="11" ry="11" style="stroke: #A80036; stroke-width: 1.0;"/><path d="M192.9688,197.6406 Q192.3906,197.9375 191.75,198.0781 Q191.1094,198.2344 190.4063,198.2344 Q187.9063,198.2344 186.5781,196.5938 Q185.2656,194.9375 185.2656,191.8125 Q185.2656,188.6875 186.5781,187.0313 Q187.9063,185.375 190.4063,185.375 Q191.1094,185.375 191.75,185.5313 Q192.4063,185.6875 192.9688,185.9844 L192.9688,188.7031 Q192.3438,188.125 191.75,187.8594 Q191.1563,187.5781 190.5313,187.5781 Q189.1875,187.5781 188.5,188.6563 Q187.8125,189.7188 187.8125,191.8125 Q187.8125,193.9063 188.5,194.9844 Q189.1875,196.0469 190.5313,196.0469 Q191.1563,196.0469 191.75,195.7813 Q192.3438,195.5 192.9688,194.9219 L192.9688,197.6406 Z "/><text fill="#000000" font-family="sans-serif" font-size="12" lengthAdjust="spacingAndGlyphs" textLength="154" x="204" y="196.656">NetworkData::NetworkData</text><line style="stroke: #A80036; stroke-width: 1.5;" x1="176" x2="360" y1="208" y2="208"/><line style="stroke: #A80036; stroke-width: 1.5;" x1="176" x2="360" y1="216" y2="216"/><!--MD5=[2cf48a705139048ba6ec43b6d87a0e82]
class C_0000365511659643489006--><rect fill="#FEFECE" filter="url(#f1ds1j13a6ouu4)" height="48" id="C_0000365511659643489006" style="stroke: #A80036; stroke-width: 1.5;" width="115" x="659.5" y="662"/><ellipse cx="674.5" cy="678" fill="#ADD1B2" rx="11" ry="11" style="stroke: #A80036; stroke-width: 1.0;"/><path d="M677.4688,683.6406 Q676.8906,683.9375 676.25,684.0781 Q675.6094,684.2344 674.9063,684.2344 Q672.4063,684.2344 671.0781,682.5938 Q669.7656,680.9375 669.7656,677.8125 Q669.7656,674.6875 671.0781,673.0313 Q672.4063,671.375 674.9063,671.375 Q675.6094,671.375 676.25,671.5313 Q676.9063,671.6875 677.4688,671.9844 L677.4688,674.7031 Q676.8438,674.125 676.25,673.8594 Q675.6563,673.5781 675.0313,673.5781 Q673.6875,673.5781 673,674.6563 Q672.3125,675.7188 672.3125,677.8125 Q672.3125,679.9063 673,680.9844 Q673.6875,682.0469 675.0313,682.0469 Q675.6563,682.0469 676.25,681.7813 Q676.8438,681.5 677.4688,680.9219 L677.4688,683.6406 Z "/><text fill="#000000" font-family="sans-serif" font-size="12" lengthAdjust="spacingAndGlyphs" textLength="83" x="688.5" y="682.656">IndirectSender</text><line style="stroke: #A80036; stroke-width: 1.5;" x1="660.5" x2="773.5" y1="694" y2="694"/><line style="stroke: #A80036; stroke-width: 1.5;" x1="660.5" x2="773.5" y1="702" y2="702"/><!--MD5=[cf0a39651d445606eb194c0aa6ad89da]
class C_0002074607423113921391--><rect fill="#FEFECE" filter="url(#f1ds1j13a6ouu4)" height="56" id="C_0002074607423113921391" style="stroke: #A80036; stroke-width: 1.5;" width="80" x="872" y="308"/><ellipse cx="887" cy="324" fill="#ADD1B2" rx="11" ry="11" style="stroke: #A80036; stroke-width: 1.0;"/><path d="M889.9688,329.6406 Q889.3906,329.9375 888.75,330.0781 Q888.1094,330.2344 887.4063,330.2344 Q884.9063,330.2344 883.5781,328.5938 Q882.2656,326.9375 882.2656,323.8125 Q882.2656,320.6875 883.5781,319.0313 Q884.9063,317.375 887.4063,317.375 Q888.1094,317.375 888.75,317.5313 Q889.4063,317.6875 889.9688,317.9844 L889.9688,320.7031 Q889.3438,320.125 888.75,319.8594 Q888.1563,319.5781 887.5313,319.5781 Q886.1875,319.5781 885.5,320.6563 Q884.8125,321.7188 884.8125,323.8125 Q884.8125,325.9063 885.5,326.9844 Q886.1875,328.0469 887.5313,328.0469 Q888.1563,328.0469 888.75,327.7813 Q889.3438,327.5 889.9688,326.9219 L889.9688,329.6406 Z "/><text fill="#000000" font-family="sans-serif" font-size="12" lengthAdjust="spacingAndGlyphs" textLength="48" x="901" y="328.656">Instance</text><line style="stroke: #A80036; stroke-width: 1.5;" x1="873" x2="951" y1="340" y2="340"/><line style="stroke: #A80036; stroke-width: 1.5;" x1="873" x2="951" y1="348" y2="348"/><line style="stroke: #A80036; stroke-width: 1.5;" x1="873" x2="951" y1="356" y2="356"/><!--MD5=[dabec9b676e82fd3645a7ac0b68a2c8b]
class C_0000603837953379726446--><rect fill="#FEFECE" filter="url(#f1ds1j13a6ouu4)" height="48" id="C_0000603837953379726446" style="stroke: #A80036; stroke-width: 1.5;" width="83" x="1319.5" y="773"/><ellipse cx="1334.5" cy="789" fill="#ADD1B2" rx="11" ry="11" style="stroke: #A80036; stroke-width: 1.0;"/><path d="M1337.4688,794.6406 Q1336.8906,794.9375 1336.25,795.0781 Q1335.6094,795.2344 1334.9063,795.2344 Q1332.4063,795.2344 1331.0781,793.5938 Q1329.7656,791.9375 1329.7656,788.8125 Q1329.7656,785.6875 1331.0781,784.0313 Q1332.4063,782.375 1334.9063,782.375 Q1335.6094,782.375 1336.25,782.5313 Q1336.9063,782.6875 1337.4688,782.9844 L1337.4688,785.7031 Q1336.8438,785.125 1336.25,784.8594 Q1335.6563,784.5781 1335.0313,784.5781 Q1333.6875,784.5781 1333,785.6563 Q1332.3125,786.7188 1332.3125,788.8125 Q1332.3125,790.9063 1333,791.9844 Q1333.6875,793.0469 1335.0313,793.0469 Q1335.6563,793.0469 1336.25,792.7813 Q1336.8438,792.5 1337.4688,791.9219 L1337.4688,794.6406 Z "/><text fill="#000000" font-family="sans-serif" font-size="12" lengthAdjust="spacingAndGlyphs" textLength="51" x="1348.5" y="793.656">Message</text><line style="stroke: #A80036; stroke-width: 1.5;" x1="1320.5" x2="1401.5" y1="805" y2="805"/><line style="stroke: #A80036; stroke-width: 1.5;" x1="1320.5" x2="1401.5" y1="813" y2="813"/><!--MD5=[87fa827c1e343817e86ddfbe8d4efc3e]
class C_0000970679022985562567--><rect fill="#FEFECE" filter="url(#f1ds1j13a6ouu4)" height="48" id="C_0000970679022985562567" style="stroke: #A80036; stroke-width: 1.5;" width="95" x="1319.5" y="662"/><ellipse cx="1334.5" cy="678" fill="#ADD1B2" rx="11" ry="11" style="stroke: #A80036; stroke-width: 1.0;"/><path d="M1337.4688,683.6406 Q1336.8906,683.9375 1336.25,684.0781 Q1335.6094,684.2344 1334.9063,684.2344 Q1332.4063,684.2344 1331.0781,682.5938 Q1329.7656,680.9375 1329.7656,677.8125 Q1329.7656,674.6875 1331.0781,673.0313 Q1332.4063,671.375 1334.9063,671.375 Q1335.6094,671.375 1336.25,671.5313 Q1336.9063,671.6875 1337.4688,671.9844 L1337.4688,674.7031 Q1336.8438,674.125 1336.25,673.8594 Q1335.6563,673.5781 1335.0313,673.5781 Q1333.6875,673.5781 1333,674.6563 Q1332.3125,675.7188 1332.3125,677.8125 Q1332.3125,679.9063 1333,680.9844 Q1333.6875,682.0469 1335.0313,682.0469 Q1335.6563,682.0469 1336.25,681.7813 Q1336.8438,681.5 1337.4688,680.9219 L1337.4688,683.6406 Z "/><text fill="#000000" font-family="sans-serif" font-size="12" lengthAdjust="spacingAndGlyphs" textLength="63" x="1348.5" y="682.656">FrameData</text><line style="stroke: #A80036; stroke-width: 1.5;" x1="1320.5" x2="1413.5" y1="694" y2="694"/><line style="stroke: #A80036; stroke-width: 1.5;" x1="1320.5" x2="1413.5" y1="702" y2="702"/><!--MD5=[6c4bd14df83ef8ef52b89df32dc0cf12]
class C_0001613647999044296420--><rect fill="#FEFECE" filter="url(#f1ds1j13a6ouu4)" height="48" id="C_0001613647999044296420" style="stroke: #A80036; stroke-width: 1.5;" width="108" x="1450" y="662"/><ellipse cx="1465" cy="678" fill="#ADD1B2" rx="11" ry="11" style="stroke: #A80036; stroke-width: 1.0;"/><path d="M1467.9688,683.6406 Q1467.3906,683.9375 1466.75,684.0781 Q1466.1094,684.2344 1465.4063,684.2344 Q1462.9063,684.2344 1461.5781,682.5938 Q1460.2656,680.9375 1460.2656,677.8125 Q1460.2656,674.6875 1461.5781,673.0313 Q1462.9063,671.375 1465.4063,671.375 Q1466.1094,671.375 1466.75,671.5313 Q1467.4063,671.6875 1467.9688,671.9844 L1467.9688,674.7031 Q1467.3438,674.125 1466.75,673.8594 Q1466.1563,673.5781 1465.5313,673.5781 Q1464.1875,673.5781 1463.5,674.6563 Q1462.8125,675.7188 1462.8125,677.8125 Q1462.8125,679.9063 1463.5,680.9844 Q1464.1875,682.0469 1465.5313,682.0469 Q1466.1563,682.0469 1466.75,681.7813 Q1467.3438,681.5 1467.9688,680.9219 L1467.9688,683.6406 Z "/><text fill="#000000" font-family="sans-serif" font-size="12" lengthAdjust="spacingAndGlyphs" textLength="76" x="1479" y="682.656">FrameBuilder</text><line style="stroke: #A80036; stroke-width: 1.5;" x1="1451" x2="1557" y1="694" y2="694"/><line style="stroke: #A80036; stroke-width: 1.5;" x1="1451" x2="1557" y1="702" y2="702"/><!--MD5=[46c291f064a5f75eb494507c891df4d6]
class C_0001739458148921928763--><rect fill="#FEFECE" filter="url(#f1ds1j13a6ouu4)" height="48" id="C_0001739458148921928763" style="stroke: #A80036; stroke-width: 1.5;" width="116" x="1319" y="928"/><ellipse cx="1334" cy="944" fill="#ADD1B2" rx="11" ry="11" style="stroke: #A80036; stroke-width: 1.0;"/><path d="M1336.9688,949.6406 Q1336.3906,949.9375 1335.75,950.0781 Q1335.1094,950.2344 1334.4063,950.2344 Q1331.9063,950.2344 1330.5781,948.5938 Q1329.2656,946.9375 1329.2656,943.8125 Q1329.2656,940.6875 1330.5781,939.0313 Q1331.9063,937.375 1334.4063,937.375 Q1335.1094,937.375 1335.75,937.5313 Q1336.4063,937.6875 1336.9688,937.9844 L1336.9688,940.7031 Q1336.3438,940.125 1335.75,939.8594 Q1335.1563,939.5781 1334.5313,939.5781 Q1333.1875,939.5781 1332.5,940.6563 Q1331.8125,941.7188 1331.8125,943.8125 Q1331.8125,945.9063 1332.5,946.9844 Q1333.1875,948.0469 1334.5313,948.0469 Q1335.1563,948.0469 1335.75,947.7813 Q1336.3438,947.5 1336.9688,946.9219 L1336.9688,949.6406 Z "/><text fill="#000000" font-family="sans-serif" font-size="12" lengthAdjust="spacingAndGlyphs" textLength="84" x="1348" y="948.656">ThreadLinkInfo</text><line style="stroke: #A80036; stroke-width: 1.5;" x1="1320" x2="1434" y1="960" y2="960"/><line style="stroke: #A80036; stroke-width: 1.5;" x1="1320" x2="1434" y1="968" y2="968"/><!--MD5=[74880f3c072891bad702bfe9634465f5]
class C_0002099165682465547464--><rect fill="#FEFECE" filter="url(#f1ds1j13a6ouu4)" height="48" id="C_0002099165682465547464" style="stroke: #A80036; stroke-width: 1.5;" width="98" x="1112" y="662"/><ellipse cx="1127" cy="678" fill="#ADD1B2" rx="11" ry="11" style="stroke: #A80036; stroke-width: 1.0;"/><path d="M1129.9688,683.6406 Q1129.3906,683.9375 1128.75,684.0781 Q1128.1094,684.2344 1127.4063,684.2344 Q1124.9063,684.2344 1123.5781,682.5938 Q1122.2656,680.9375 1122.2656,677.8125 Q1122.2656,674.6875 1123.5781,673.0313 Q1124.9063,671.375 1127.4063,671.375 Q1128.1094,671.375 1128.75,671.5313 Q1129.4063,671.6875 1129.9688,671.9844 L1129.9688,674.7031 Q1129.3438,674.125 1128.75,673.8594 Q1128.1563,673.5781 1127.5313,673.5781 Q1126.1875,673.5781 1125.5,674.6563 Q1124.8125,675.7188 1124.8125,677.8125 Q1124.8125,679.9063 1125.5,680.9844 Q1126.1875,682.0469 1127.5313,682.0469 Q1128.1563,682.0469 1128.75,681.7813 Q1129.3438,681.5 1129.9688,680.9219 L1129.9688,683.6406 Z "/><text fill="#000000" font-family="sans-serif" font-size="12" lengthAdjust="spacingAndGlyphs" textLength="66" x="1141" y="682.656">Ip6::Header</text><line style="stroke: #A80036; stroke-width: 1.5;" x1="1113" x2="1209" y1="694" y2="694"/><line style="stroke: #A80036; stroke-width: 1.5;" x1="1113" x2="1209" y1="702" y2="702"/><!--MD5=[9ef2dba83634ac868a13c7d0d8701e93]
class C_0001018498121270593936--><rect fill="#FEFECE" filter="url(#f1ds1j13a6ouu4)" height="48" id="C_0001018498121270593936" style="stroke: #A80036; stroke-width: 1.5;" width="74" x="1176" y="489"/><ellipse cx="1191" cy="505" fill="#ADD1B2" rx="11" ry="11" style="stroke: #A80036; stroke-width: 1.0;"/><path d="M1193.9688,510.6406 Q1193.3906,510.9375 1192.75,511.0781 Q1192.1094,511.2344 1191.4063,511.2344 Q1188.9063,511.2344 1187.5781,509.5938 Q1186.2656,507.9375 1186.2656,504.8125 Q1186.2656,501.6875 1187.5781,500.0313 Q1188.9063,498.375 1191.4063,498.375 Q1192.1094,498.375 1192.75,498.5313 Q1193.4063,498.6875 1193.9688,498.9844 L1193.9688,501.7031 Q1193.3438,501.125 1192.75,500.8594 Q1192.1563,500.5781 1191.5313,500.5781 Q1190.1875,500.5781 1189.5,501.6563 Q1188.8125,502.7188 1188.8125,504.8125 Q1188.8125,506.9063 1189.5,507.9844 Q1190.1875,509.0469 1191.5313,509.0469 Q1192.1563,509.0469 1192.75,508.7813 Q1193.3438,508.5 1193.9688,507.9219 L1193.9688,510.6406 Z "/><text fill="#000000" font-family="sans-serif" font-size="12" lengthAdjust="spacingAndGlyphs" textLength="42" x="1205" y="509.656">Ip6::Ip6</text><line style="stroke: #A80036; stroke-width: 1.5;" x1="1177" x2="1249" y1="521" y2="521"/><line style="stroke: #A80036; stroke-width: 1.5;" x1="1177" x2="1249" y1="529" y2="529"/><!--MD5=[40b257a41ea8db5138df9c0a32478837]
class C_0000274617637055195381--><rect fill="#FEFECE" filter="url(#f1ds1j13a6ouu4)" height="48" id="C_0000274617637055195381" style="stroke: #A80036; stroke-width: 1.5;" width="104" x="1037" y="489"/><ellipse cx="1052" cy="505" fill="#ADD1B2" rx="11" ry="11" style="stroke: #A80036; stroke-width: 1.0;"/><path d="M1054.9688,510.6406 Q1054.3906,510.9375 1053.75,511.0781 Q1053.1094,511.2344 1052.4063,511.2344 Q1049.9063,511.2344 1048.5781,509.5938 Q1047.2656,507.9375 1047.2656,504.8125 Q1047.2656,501.6875 1048.5781,500.0313 Q1049.9063,498.375 1052.4063,498.375 Q1053.1094,498.375 1053.75,498.5313 Q1054.4063,498.6875 1054.9688,498.9844 L1054.9688,501.7031 Q1054.3438,501.125 1053.75,500.8594 Q1053.1563,500.5781 1052.5313,500.5781 Q1051.1875,500.5781 1050.5,501.6563 Q1049.8125,502.7188 1049.8125,504.8125 Q1049.8125,506.9063 1050.5,507.9844 Q1051.1875,509.0469 1052.5313,509.0469 Q1053.1563,509.0469 1053.75,508.7813 Q1054.3438,508.5 1054.9688,507.9219 L1054.9688,510.6406 Z "/><text fill="#000000" font-family="sans-serif" font-size="12" lengthAdjust="spacingAndGlyphs" textLength="72" x="1066" y="509.656">Ip6::Headers</text><line style="stroke: #A80036; stroke-width: 1.5;" x1="1038" x2="1140" y1="521" y2="521"/><line style="stroke: #A80036; stroke-width: 1.5;" x1="1038" x2="1140" y1="529" y2="529"/><!--MD5=[bb5036fdb0d4126175e8526da1aca6e3]
class C_0002066399530883052289--><rect fill="#FEFECE" filter="url(#f1ds1j13a6ouu4)" height="48" id="C_0002066399530883052289" style="stroke: #A80036; stroke-width: 1.5;" width="118" x="1614" y="928"/><ellipse cx="1629" cy="944" fill="#ADD1B2" rx="11" ry="11" style="stroke: #A80036; stroke-width: 1.0;"/><path d="M1631.9688,949.6406 Q1631.3906,949.9375 1630.75,950.0781 Q1630.1094,950.2344 1629.4063,950.2344 Q1626.9063,950.2344 1625.5781,948.5938 Q1624.2656,946.9375 1624.2656,943.8125 Q1624.2656,940.6875 1625.5781,939.0313 Q1626.9063,937.375 1629.4063,937.375 Q1630.1094,937.375 1630.75,937.5313 Q1631.4063,937.6875 1631.9688,937.9844 L1631.9688,940.7031 Q1631.3438,940.125 1630.75,939.8594 Q1630.1563,939.5781 1629.5313,939.5781 Q1628.1875,939.5781 1627.5,940.6563 Q1626.8125,941.7188 1626.8125,943.8125 Q1626.8125,945.9063 1627.5,946.9844 Q1628.1875,948.0469 1629.5313,948.0469 Q1630.1563,948.0469 1630.75,947.7813 Q1631.3438,947.5 1631.9688,946.9219 L1631.9688,949.6406 Z "/><text fill="#000000" font-family="sans-serif" font-size="12" lengthAdjust="spacingAndGlyphs" textLength="86" x="1643" y="948.656">Coap::Message</text><line style="stroke: #A80036; stroke-width: 1.5;" x1="1615" x2="1731" y1="960" y2="960"/><line style="stroke: #A80036; stroke-width: 1.5;" x1="1615" x2="1731" y1="968" y2="968"/><polygon fill="#FFFFFF" filter="url(#f1ds1j13a6ouu4)" points="62,171,126,171,133,196.0679,140,196.0679,140,229.1358,62,229.1358,62,171" style="stroke: #000000; stroke-width: 1.5;"/><line style="stroke: #000000; stroke-width: 1.5;" x1="62" x2="133" y1="196.0679" y2="196.0679"/><text fill="#000000" font-family="sans-serif" font-size="14" font-weight="bold" lengthAdjust="spacingAndGlyphs" textLength="58" x="66" y="187.9659">instance</text><!--MD5=[07823e81ea5dd99f4462244bd0725c91]
link C_0001332924320389650839 to C_0002074607423113921391--><path d="M520.33,223.22 C526.29,225.22 532.25,227.18 538,229 C655.82,266.28 796.43,304.46 866.96,323.18 " fill="none" id="C_0001332924320389650839-&gt;C_0002074607423113921391" style="stroke: #A80036; stroke-width: 1.0; stroke-dasharray: 7.0,7.0;"/><polygon fill="#A80036" points="871.91,324.49,864.2423,318.3089,867.0784,323.2035,862.1838,326.0396,871.91,324.49" style="stroke: #A80036; stroke-width: 1.0;"/><!--MD5=[310056349bc2b132e874d9a562ab40b1]
reverse link C_0002074607423113921391 to C_0001332924320389650839--><path d="M859.71,316.19 C812.79,299.73 741.86,275.89 679,259 C617.12,242.38 599.69,246.28 538,229 C532.19,227.37 526.19,225.55 520.21,223.63 " fill="none" id="C_0002074607423113921391&lt;-C_0001332924320389650839" style="stroke: #A80036; stroke-width: 1.0;"/><polygon fill="#FFFFFF" points="871.98,320.51,867.6484,314.7448,860.6607,316.5258,864.9923,322.291,871.98,320.51" style="stroke: #A80036; stroke-width: 1.0;"/><rect fill="none" height="6" style="stroke: #C82930; stroke-width: 1.0;" width="6" x="746" y="266.353"/><text fill="#000000" font-family="sans-serif" font-size="13" lengthAdjust="spacingAndGlyphs" textLength="60" x="756" y="273.897">mLowpan</text><!--MD5=[59c1cd5f976edffdaab352199801e6c4]
link C_0001332924320389650839 to C_0000970679022985562567--><path d="M517.75,224.07 C524.51,226.03 531.35,227.74 538,229 C581.37,237.22 1300.1,228.48 1332,259 C1388.92,313.46 1375.5,570.58 1369.26,656.76 " fill="none" id="C_0001332924320389650839-&gt;C_0000970679022985562567" style="stroke: #A80036; stroke-width: 1.0; stroke-dasharray: 7.0,7.0;"/><polygon fill="#A80036" points="1368.88,661.95,1373.5376,653.272,1369.2515,656.9638,1365.5597,652.6777,1368.88,661.95" style="stroke: #A80036; stroke-width: 1.0;"/><!--MD5=[92cfb26a91572591c6b5501325595690]
link C_0001332924320389650839 to C_0000603837953379726446--><path d="M518.22,224.05 C524.83,225.99 531.51,227.7 538,229 C758.88,273.3 822.75,216.57 1044,259 C1112.05,272.05 1133.57,270.75 1192,308 C1246.37,342.66 1269.71,357.9 1283,421 C1311.73,557.37 1246.37,606.22 1302,734 C1307.76,747.23 1317.63,759.34 1327.68,769.28 " fill="none" id="C_0001332924320389650839-&gt;C_0000603837953379726446" style="stroke: #A80036; stroke-width: 1.0; stroke-dasharray: 7.0,7.0;"/><polygon fill="#A80036" points="1331.38,772.84,1327.6779,763.7134,1327.7808,769.3693,1322.1249,769.4722,1331.38,772.84" style="stroke: #A80036; stroke-width: 1.0;"/><!--MD5=[61d87392b05de9a43f28f774ce8391b6]
link C_0001332924320389650839 to C_0001613647999044296420--><path d="M517.75,224.07 C524.51,226.03 531.35,227.74 538,229 C626.38,245.71 1271.57,209.99 1347,259 C1417.39,304.74 1479.34,569.29 1498.16,656.86 " fill="none" id="C_0001332924320389650839-&gt;C_0001613647999044296420" style="stroke: #A80036; stroke-width: 1.0; stroke-dasharray: 7.0,7.0;"/><polygon fill="#A80036" points="1499.23,661.88,1501.2362,652.2376,1498.1726,656.9931,1493.4171,653.9295,1499.23,661.88" style="stroke: #A80036; stroke-width: 1.0;"/><!--MD5=[131c24c6a42fd6c0d918e2e8cba93c28]
link C_0001332924320389650839 to C_0002099165682465547464--><path d="M519.16,224.02 C525.47,225.91 531.83,227.62 538,229 C858.35,300.78 1019.85,168.03 1258,394 C1292.49,426.73 1281.11,496.5 1268,537 C1252.55,584.73 1215.33,629.99 1189.15,657.61 " fill="none" id="C_0001332924320389650839-&gt;C_0002099165682465547464" style="stroke: #A80036; stroke-width: 1.0; stroke-dasharray: 7.0,7.0;"/><polygon fill="#A80036" points="1185.37,661.55,1194.4816,657.8111,1188.8261,657.9368,1188.7004,652.2813,1185.37,661.55" style="stroke: #A80036; stroke-width: 1.0;"/><!--MD5=[47c1404379a156ed86460d3892961c9a]
link C_0001332924320389650839 to C_0001346570432467457356--><path d="M458,224.04 C458,246.95 458,282.15 458,306.74 " fill="none" id="C_0001332924320389650839-&gt;C_0001346570432467457356" style="stroke: #A80036; stroke-width: 1.0; stroke-dasharray: 7.0,7.0;"/><polygon fill="#A80036" points="458,311.82,462,302.82,458,306.82,454,302.82,458,311.82" style="stroke: #A80036; stroke-width: 1.0;"/><!--MD5=[405b17f19a2baea96f7d1f5bce889597]
link C_0001265256160105741077 to C_0000970679022985562567--><path d="M703.41,224.05 C711.31,226 719.28,227.71 727,229 C764.24,235.22 1379.9,231.72 1406,259 C1512.51,370.32 1420.79,580.96 1382.17,656.85 " fill="none" id="C_0001265256160105741077-&gt;C_0000970679022985562567" style="stroke: #A80036; stroke-width: 1.0; stroke-dasharray: 7.0,7.0;"/><polygon fill="#A80036" points="1379.71,661.65,1387.3761,655.4669,1381.9916,657.2009,1380.2576,651.8164,1379.71,661.65" style="stroke: #A80036; stroke-width: 1.0;"/><!--MD5=[904362e072891b4dbe72c8a45a5e17a8]
link C_0001265256160105741077 to C_0000603837953379726446--><path d="M703.15,224 C711.13,225.97 719.2,227.71 727,229 C883.89,255.01 1288.03,219.23 1442,259 C1515.13,277.89 1594,259.47 1594,335 C1594,335 1594,335 1594,687 C1594,768.39 1475.91,789.14 1407.87,794.34 " fill="none" id="C_0001265256160105741077-&gt;C_0000603837953379726446" style="stroke: #A80036; stroke-width: 1.0; stroke-dasharray: 7.0,7.0;"/><polygon fill="#A80036" points="1402.66,794.71,1411.9228,798.0567,1407.6472,794.3527,1411.3512,790.0772,1402.66,794.71" style="stroke: #A80036; stroke-width: 1.0;"/><!--MD5=[155f0c1c73406370e465c472457ca073]
link C_0001265256160105741077 to C_0001613647999044296420--><path d="M703.41,224.06 C711.31,226 719.28,227.72 727,229 C803.14,241.67 1353.66,221.28 1421,259 C1559.3,336.48 1526.34,574.31 1510.21,656.62 " fill="none" id="C_0001265256160105741077-&gt;C_0001613647999044296420" style="stroke: #A80036; stroke-width: 1.0; stroke-dasharray: 7.0,7.0;"/><polygon fill="#A80036" points="1509.17,661.81,1514.8394,653.7565,1510.1396,656.9049,1506.9912,652.2052,1509.17,661.81" style="stroke: #A80036; stroke-width: 1.0;"/><!--MD5=[8fa7cc4f26240b0e41a5af6143933edc]
link C_0000603590511880671658 to C_0000970679022985562567--><path d="M937.26,537.11 C954.22,546.17 973.65,556.83 991,567 C1004.62,574.98 1005.92,581.36 1021,586 C1073.06,602.03 1215.47,573.64 1266,594 C1298.77,607.2 1327.75,636.08 1346.16,657.78 " fill="none" id="C_0000603590511880671658-&gt;C_0000970679022985562567" style="stroke: #A80036; stroke-width: 1.0; stroke-dasharray: 7.0,7.0;"/><polygon fill="#A80036" points="1349.48,661.75,1346.7773,652.2792,1346.2734,657.9136,1340.6391,657.4097,1349.48,661.75" style="stroke: #A80036; stroke-width: 1.0;"/><!--MD5=[af1455f56110f0fa97e658c26080542c]
link C_0000603590511880671658 to C_0001739458148921928763--><path d="M832.48,524.35 C765.18,537.31 663.12,561.77 642,594 C607.9,646.05 604.75,684.16 642,734 C724.1,843.84 1150.54,917.49 1313.55,942.01 " fill="none" id="C_0000603590511880671658-&gt;C_0001739458148921928763" style="stroke: #A80036; stroke-width: 1.0; stroke-dasharray: 7.0,7.0;"/><polygon fill="#A80036" points="1318.77,942.79,1310.4644,937.4968,1313.8255,942.0469,1309.2755,945.408,1318.77,942.79" style="stroke: #A80036; stroke-width: 1.0;"/><!--MD5=[e80c21ed627299ec5bfd4713cc26a81a]
link C_0000603590511880671658 to C_0000274617637055195381--><path d="M953.87,513 C979.77,513 1005.66,513 1031.56,513 " fill="none" id="C_0000603590511880671658-&gt;C_0000274617637055195381" style="stroke: #A80036; stroke-width: 1.0; stroke-dasharray: 7.0,7.0;"/><polygon fill="#A80036" points="1036.74,513,1027.74,509,1031.74,513,1027.74,517,1036.74,513" style="stroke: #A80036; stroke-width: 1.0;"/><!--MD5=[c949ca10ea52695cfb2546ba0ca270c0]
link C_0000603590511880671658 to C_0002099165682465547464--><path d="M924.27,537.01 C944.24,551.47 970.83,570.29 995,586 C1035.12,612.07 1082.05,639.81 1115.76,659.28 " fill="none" id="C_0000603590511880671658-&gt;C_0002099165682465547464" style="stroke: #A80036; stroke-width: 1.0; stroke-dasharray: 7.0,7.0;"/><polygon fill="#A80036" points="1120.21,661.85,1114.417,653.885,1115.8803,659.3493,1110.4159,660.8126,1120.21,661.85" style="stroke: #A80036; stroke-width: 1.0;"/><!--MD5=[8a0a69579be502390fc549101bc9cbc2]
link C_0000603590511880671658 to C_0000603837953379726446--><path d="M880.92,537.32 C859.84,581.61 823.04,678.44 872,734 C901.02,766.94 1197.7,786.91 1314.3,793.54 " fill="none" id="C_0000603590511880671658-&gt;C_0000603837953379726446" style="stroke: #A80036; stroke-width: 1.0;"/><polygon fill="#A80036" points="1319.38,793.82,1310.6229,789.3131,1314.3881,793.5348,1310.1665,797.3,1319.38,793.82" style="stroke: #A80036; stroke-width: 1.0;"/><rect fill="none" height="6" style="stroke: #C82930; stroke-width: 1.0;" width="6" x="875" y="683.853"/><text fill="#000000" font-family="sans-serif" font-size="13" lengthAdjust="spacingAndGlyphs" textLength="95" x="885" y="691.397">mSendMessage</text><!--MD5=[eccd5a0471b827fad5f5d46b90cee13b]
reverse link C_0000603590511880671658 to C_0000365511659643489006--><path d="M818.9,517.94 C783.85,523.93 744.79,537.41 722,567 C701.11,594.13 705.34,636.08 710.82,661.97 " fill="none" id="C_0000603590511880671658&lt;-C_0000365511659643489006" style="stroke: #A80036; stroke-width: 1.0;"/><polygon fill="#FFFFFF" points="832.09,516,825.5697,512.9201,820.2189,517.7543,826.7392,520.8342,832.09,516" style="stroke: #A80036; stroke-width: 1.0;"/><rect fill="none" height="6" style="stroke: #C82930; stroke-width: 1.0;" width="6" x="725" y="574.353"/><text fill="#000000" font-family="sans-serif" font-size="13" lengthAdjust="spacingAndGlyphs" textLength="100" x="735" y="581.897">mIndirectSender</text><!--MD5=[cd1700613e46d4b0f28f34628a13c6ae]
reverse link C_0000603590511880671658 to C_0001018498121270593936--><path d="M911.41,484.39 C927.02,463 951.54,435.4 981,423 C1053.92,392.32 1090.16,384.02 1159,423 C1183.74,437.01 1198.38,467.36 1206.04,488.94 " fill="none" id="C_0000603590511880671658&lt;-C_0001018498121270593936" style="stroke: #A80036; stroke-width: 1.0; stroke-dasharray: 7.0,7.0;"/><polygon fill="#A80036" points="908.41,488.58,916.9093,483.6039,911.327,484.5191,910.4119,478.9367,908.41,488.58" style="stroke: #A80036; stroke-width: 1.0;"/><ellipse cx="1014.5" cy="404.353" fill="none" rx="3" ry="3" style="stroke: #038048; stroke-width: 1.0;"/><text fill="#000000" font-family="sans-serif" font-size="13" lengthAdjust="spacingAndGlyphs" textLength="49" x="1021.5" y="408.897">«friend»</text><!--MD5=[67478cf5a3951aab99f19aa213f82454]
reverse link C_0000603590511880671658 to C_0002074607423113921391--><path d="M896.08,483.67 C899.65,450.75 905.5,396.83 909.03,364.34 " fill="none" id="C_0000603590511880671658&lt;-C_0002074607423113921391" style="stroke: #A80036; stroke-width: 1.0; stroke-dasharray: 7.0,7.0;"/><polygon fill="#A80036" points="895.52,488.76,900.4733,480.2474,896.0628,483.7895,892.5206,479.379,895.52,488.76" style="stroke: #A80036; stroke-width: 1.0;"/><ellipse cx="911" cy="404.353" fill="none" rx="3" ry="3" style="stroke: #038048; stroke-width: 1.0;"/><text fill="#000000" font-family="sans-serif" font-size="13" lengthAdjust="spacingAndGlyphs" textLength="49" x="918" y="408.897">«friend»</text><!--MD5=[e4a173b20cbba95f18b92b6633a419e5]
reverse link C_0002074607423113921391 to C_0000603590511880671658--><path d="M858.77,344.55 C828.75,351.83 793.62,366.09 775,394 C750.08,431.36 798.6,466.74 840.75,488.84 " fill="none" id="C_0002074607423113921391&lt;-C_0000603590511880671658" style="stroke: #A80036; stroke-width: 1.0;"/><polygon fill="#FFFFFF" points="871.69,341.75,864.9786,339.1124,859.9626,344.2931,866.674,346.9307,871.69,341.75" style="stroke: #A80036; stroke-width: 1.0;"/><rect fill="none" height="6" style="stroke: #C82930; stroke-width: 1.0;" width="6" x="778" y="401.353"/><text fill="#000000" font-family="sans-serif" font-size="13" lengthAdjust="spacingAndGlyphs" textLength="107" x="788" y="408.897">mMeshForwarder</text><!--MD5=[e329f20c0c1dc15d588e25cb1e32252a]
link C_0000603837953379726446 to C_0002074607423113921391--><path d="M1319.47,794.35 C1237.95,790.2 1061.4,776.42 1021,734 C968.44,678.81 1011.69,461.34 976,394 C970.85,384.28 963.34,375.43 955.26,367.74 " fill="none" id="C_0000603837953379726446-&gt;C_0002074607423113921391" style="stroke: #A80036; stroke-width: 1.0; stroke-dasharray: 7.0,7.0;"/><polygon fill="#A80036" points="951.26,364.07,955.201,373.096,954.9493,367.4447,960.6006,367.1931,951.26,364.07" style="stroke: #A80036; stroke-width: 1.0;"/><!--MD5=[ed059124b509f41e3d13f3b9aa3e730c]
link C_0000603837953379726446 to C_0001739458148921928763--><path d="M1363.43,821.24 C1366.26,848.31 1370.94,893.05 1374,922.27 " fill="none" id="C_0000603837953379726446-&gt;C_0001739458148921928763" style="stroke: #A80036; stroke-width: 1.0; stroke-dasharray: 7.0,7.0;"/><polygon fill="#A80036" points="1374.55,927.54,1377.6027,918.1762,1374.0355,922.5665,1369.6451,918.9994,1374.55,927.54" style="stroke: #A80036; stroke-width: 1.0;"/><!--MD5=[0a62af20424b69fef144dfa119fb5361]
link C_0001613647999044296420 to C_0000603837953379726446--><path d="M1473.67,710.12 C1450.73,727.6 1419.21,751.63 1395.35,769.82 " fill="none" id="C_0001613647999044296420-&gt;C_0000603837953379726446" style="stroke: #A80036; stroke-width: 1.0; stroke-dasharray: 7.0,7.0;"/><polygon fill="#A80036" points="1391.28,772.92,1400.866,770.6598,1395.2611,769.8949,1396.0259,764.29,1391.28,772.92" style="stroke: #A80036; stroke-width: 1.0;"/><!--MD5=[f53d837d4b835c54731c9020991e3441]
link C_0002099165682465547464 to C_0000603837953379726446--><path d="M1189.16,710.18 C1203.05,720.97 1220.35,733.48 1237,743 C1261.67,757.11 1290.83,769.76 1314.67,779.15 " fill="none" id="C_0002099165682465547464-&gt;C_0000603837953379726446" style="stroke: #A80036; stroke-width: 1.0; stroke-dasharray: 7.0,7.0;"/><polygon fill="#A80036" points="1319.37,780.99,1312.4545,773.9774,1314.7159,779.1626,1309.5307,781.424,1319.37,780.99" style="stroke: #A80036; stroke-width: 1.0;"/><!--MD5=[7181f9919252f5cdb70d4e63b6fbe16c]
link C_0001018498121270593936 to C_0000603837953379726446--><path d="M1218.15,537.23 C1230.47,592.08 1261.5,726.28 1274,743 C1284.46,756.99 1299.8,768.08 1314.7,776.42 " fill="none" id="C_0001018498121270593936-&gt;C_0000603837953379726446" style="stroke: #A80036; stroke-width: 1.0; stroke-dasharray: 7.0,7.0;"/><polygon fill="#A80036" points="1319.3,778.92,1313.2948,771.1138,1314.9045,776.5367,1309.4816,778.1465,1319.3,778.92" style="stroke: #A80036; stroke-width: 1.0;"/><!--MD5=[2c2ae4214fba6ef8170ac5b5935854a9]
link C_0001018498121270593936 to C_0002099165682465547464--><path d="M1206.85,537.09 C1203.01,551.25 1197.89,569.72 1193,586 C1185.77,610.08 1176.94,637.25 1170.39,657.02 " fill="none" id="C_0001018498121270593936-&gt;C_0002099165682465547464" style="stroke: #A80036; stroke-width: 1.0; stroke-dasharray: 7.0,7.0;"/><polygon fill="#A80036" points="1168.77,661.88,1175.4174,654.6128,1170.3554,657.138,1167.8302,652.0761,1168.77,661.88" style="stroke: #A80036; stroke-width: 1.0;"/><!--MD5=[c0cc2f1dd023a7f3d3035299ccc3e576]
reverse link C_0001018498121270593936 to C_0002074607423113921391--><path d="M1211.13,483.6 C1207.8,456.61 1198.55,416.84 1173,394 C1140.76,365.17 1016.97,348.1 952.14,340.95 " fill="none" id="C_0001018498121270593936&lt;-C_0002074607423113921391" style="stroke: #A80036; stroke-width: 1.0; stroke-dasharray: 7.0,7.0;"/><polygon fill="#A80036" points="1211.72,488.82,1214.6661,479.4221,1211.149,483.8527,1206.7184,480.3356,1211.72,488.82" style="stroke: #A80036; stroke-width: 1.0;"/><ellipse cx="1193" cy="404.353" fill="none" rx="3" ry="3" style="stroke: #038048; stroke-width: 1.0;"/><text fill="#000000" font-family="sans-serif" font-size="13" lengthAdjust="spacingAndGlyphs" textLength="49" x="1200" y="408.897">«friend»</text><!--MD5=[e977aa4de495ba2b5fbec0bf67d0ccaa]
reverse link C_0002074607423113921391 to C_0001018498121270593936--><path d="M964.89,353.2 C998.27,363.85 1042.08,378.62 1080,394 C1098.24,401.4 1101.34,406.76 1120,413 C1136.78,418.61 1144.59,410.74 1159,421 C1182.34,437.62 1197.29,467.78 1205.4,488.8 " fill="none" id="C_0002074607423113921391&lt;-C_0001018498121270593936" style="stroke: #A80036; stroke-width: 1.0;"/><polygon fill="#FFFFFF" points="952.19,349.19,956.7057,354.8121,963.6322,352.8061,959.1165,347.184,952.19,349.19" style="stroke: #A80036; stroke-width: 1.0;"/><rect fill="none" height="6" style="stroke: #C82930; stroke-width: 1.0;" width="6" x="1123" y="401.353"/><text fill="#000000" font-family="sans-serif" font-size="13" lengthAdjust="spacingAndGlyphs" textLength="31" x="1133" y="408.897">mIp6</text><!--MD5=[e1c95419f0cd0befa1c5fc149e2021d0]
link C_0000274617637055195381 to C_0000603837953379726446--><path d="M1081.16,537.26 C1067.89,581.46 1046.86,678.14 1095,734 C1123.17,766.69 1245.74,784.23 1314.24,791.65 " fill="none" id="C_0000274617637055195381-&gt;C_0000603837953379726446" style="stroke: #A80036; stroke-width: 1.0; stroke-dasharray: 7.0,7.0;"/><polygon fill="#A80036" points="1319.48,792.21,1310.9533,787.2809,1314.508,791.6814,1310.1075,795.236,1319.48,792.21" style="stroke: #A80036; stroke-width: 1.0;"/><!--MD5=[95ccf103fd9575ce848073bfc43afbf7]
link C_0000274617637055195381 to C_0000970679022985562567--><path d="M1141.14,532.63 C1177.6,546.82 1226.62,568.26 1266,594 C1294.15,612.4 1322.26,638.51 1341.65,658.05 " fill="none" id="C_0000274617637055195381-&gt;C_0000970679022985562567" style="stroke: #A80036; stroke-width: 1.0; stroke-dasharray: 7.0,7.0;"/><polygon fill="#A80036" points="1345.4,661.87,1341.939,652.6493,1341.8932,658.306,1336.2365,658.2602,1345.4,661.87" style="stroke: #A80036; stroke-width: 1.0;"/><!--MD5=[3b0f4166214bc8fec2cb0eb468b0313d]
link C_0000274617637055195381 to C_0002074607423113921391--><path d="M1066.73,488.77 C1048.83,469.41 1023.67,440.65 1005,413 C999.66,405.09 1001.34,401.13 995,394 C984.15,381.79 970.16,370.9 956.77,362 " fill="none" id="C_0000274617637055195381-&gt;C_0002074607423113921391" style="stroke: #A80036; stroke-width: 1.0; stroke-dasharray: 7.0,7.0;"/><polygon fill="#A80036" points="952.26,359.05,957.6151,367.3157,956.4486,361.7805,961.9839,360.6139,952.26,359.05" style="stroke: #A80036; stroke-width: 1.0;"/><!--MD5=[acc084ee206e4f2a55cafe415d1a1191]
reverse link C_0000274617637055195381 to C_0002099165682465547464--><path d="M1089.12,550.31 C1090.05,561.97 1092.04,574.76 1096,586 C1106.05,614.51 1125.99,642.92 1141.15,661.94 " fill="none" id="C_0000274617637055195381&lt;-C_0002099165682465547464" style="stroke: #A80036; stroke-width: 1.0;"/><polygon fill="#FFFFFF" points="1088.46,537.31,1084.7687,543.5047,1089.0672,549.2946,1092.7585,543.0999,1088.46,537.31" style="stroke: #A80036; stroke-width: 1.0;"/><rect fill="none" height="6" style="stroke: #C82930; stroke-width: 1.0;" width="6" x="1099" y="574.353"/><text fill="#000000" font-family="sans-serif" font-size="13" lengthAdjust="spacingAndGlyphs" textLength="75" x="1109" y="581.897">mIp6Header</text><!--MD5=[bf4b0a4848ee170aa1f409b65ae4e942]
reverse link C_0000603837953379726446 to C_0002066399530883052289--><path d="M1422.55,808.12 C1466.76,817.2 1526.64,833.31 1574,860 C1605.52,877.77 1635.17,907.38 1653.65,927.98 " fill="none" id="C_0000603837953379726446&lt;-C_0002066399530883052289" style="stroke: #A80036; stroke-width: 1.0;"/><polygon fill="none" points="1421.16,814.98,1402.84,804.32,1423.81,801.23,1421.16,814.98" style="stroke: #A80036; stroke-width: 1.0;"/><!--MD5=[56377e56d3ed6aa699ffe688f3cd89ec]
@startuml
package [src] as C_0001387619747296316447 {
package [core] as C_0002278286474666070424 {
package [thread] as C_0001183054535709160710 {
class "NetworkData::LowpanContextInfo" as C_0000683747308386236353
class C_0000683747308386236353 {
__
}
class "Lowpan::Context" as C_0001346570432467457356
class C_0001346570432467457356 {
__
}
class "Lowpan::Lowpan" as C_0001332924320389650839
class C_0001332924320389650839 {
__
}
class "Lowpan::MeshHeader" as C_0001265256160105741077
class C_0001265256160105741077 {
__
}
class "MeshForwarder" as C_0000603590511880671658
class C_0000603590511880671658 {
__
}
class "NetworkData::NetworkData" as C_0000576691251651384823
class C_0000576691251651384823 {
__
}
class "IndirectSender" as C_0000365511659643489006
class C_0000365511659643489006 {
__
}
class "Instance" as C_0002074607423113921391
class C_0002074607423113921391 {
__
}
}
package [common] as C_0000538251318670428019 {
class "Message" as C_0000603837953379726446
class C_0000603837953379726446 {
__
}
class "FrameData" as C_0000970679022985562567
class C_0000970679022985562567 {
__
}
class "FrameBuilder" as C_0001613647999044296420
class C_0001613647999044296420 {
__
}
class "ThreadLinkInfo" as C_0001739458148921928763
class C_0001739458148921928763 {
__
}
}
package [net] as C_0000215011246174653850 {
class "Ip6::Header" as C_0002099165682465547464
class C_0002099165682465547464 {
__
}
class "Ip6::Ip6" as C_0001018498121270593936
class C_0001018498121270593936 {
__
}
class "Ip6::Headers" as C_0000274617637055195381
class C_0000274617637055195381 {
__
}
}
package [coap] as C_0001889813544493651964 {
class "Coap::Message" as C_0002066399530883052289
class C_0002066399530883052289 {
__
}
}
package [instance] as C_0000273137096413401361 {
class "Instance" as C_0002074607423113921391
class C_0002074607423113921391 {
__
}
}
}
}
C_0001332924320389650839 ..> C_0002074607423113921391
C_0001332924320389650839 ..> C_0000970679022985562567
C_0001332924320389650839 ..> C_0000603837953379726446
C_0001332924320389650839 ..> C_0001613647999044296420
C_0001332924320389650839 ..> C_0002099165682465547464
C_0001332924320389650839 ..> C_0001346570432467457356
C_0001265256160105741077 ..> C_0000970679022985562567
C_0001265256160105741077 ..> C_0000603837953379726446
C_0001265256160105741077 ..> C_0001613647999044296420
C_0000603590511880671658 ..> C_0000970679022985562567
C_0000603590511880671658 ..> C_0001739458148921928763
C_0000603590511880671658 ..> C_0000274617637055195381
C_0000603590511880671658 ..> C_0002099165682465547464
C_0000603590511880671658 - -> C_0000603837953379726446 : -mSendMessage
C_0000603590511880671658 o- - C_0000365511659643489006 : -mIndirectSender
C_0000603590511880671658 <.. C_0001018498121270593936 : +<<friend>>
C_0000603590511880671658 <.. C_0002074607423113921391 : +<<friend>>
C_0000603837953379726446 ..> C_0002074607423113921391
C_0000603837953379726446 ..> C_0001739458148921928763
C_0001613647999044296420 ..> C_0000603837953379726446
C_0002099165682465547464 ..> C_0000603837953379726446
C_0001018498121270593936 ..> C_0000603837953379726446
C_0001018498121270593936 ..> C_0002099165682465547464
C_0001018498121270593936 <.. C_0002074607423113921391 : +<<friend>>
C_0000274617637055195381 ..> C_0000603837953379726446
C_0000274617637055195381 ..> C_0000970679022985562567
C_0000274617637055195381 ..> C_0002074607423113921391
C_0000274617637055195381 o- - C_0002099165682465547464 : -mIp6Header
C_0000603837953379726446 <|- - C_0002066399530883052289
C_0002074607423113921391 o- - C_0001018498121270593936 : -mIp6
C_0002074607423113921391 o- - C_0001332924320389650839 : -mLowpan
C_0002074607423113921391 o- - C_0000603590511880671658 : -mMeshForwarder

@enduml

PlantUML version 1.2020.02(Sun Mar 01 11:22:07 CET 2020)
(GPL source distribution)
Java Runtime: Java(TM) SE Runtime Environment
JVM: Java HotSpot(TM) 64-Bit Server VM
Java Version: 22+36-2370
Operating System: Linux
Default Encoding: UTF-8
Language: en
Country: US
--></g></svg>